# AST/ASF file generated using VICON BodyLanguage
# -----------------------------------------------
:version 1.10
:name VICON
:units
  mass 1.0
  length 0.45
  angle deg
:documentation
   .ast/.asf automatically generated from VICON data using
   VICON BodyBuilder and BodyLanguage model FoxedUp or BRILLIANT.MOD
:root
   order TX TY TZ RX RY RZ
   axis XYZ
   position 0 0 0  
   orientation 0 0 0 
:bonedata
  begin
     id 1 
     name lhipjoint
     direction 0.714689 -0.624256 0.315473 
     length 2.45343 
     axis 0 0 0  XYZ
  end
  begin
     id 2 
     name lfemur
     direction 0.34202 -0.939693 0  
     length 6.59069  
     axis 0 0 20  XYZ
    dof rx ry rz
    limits (-160.0 20.0)
           (-70.0 70.0)
           (-60.0 70.0)
  end
  begin
     id 3 
     name ltibia
     direction 0.34202 -0.939693 0   
     length 6.73476   
     axis 0 0 20   XYZ
    dof rx
    limits (-10.0 170.0)
  end
  begin
     id 4 
     name lfoot
     direction 0.0718085 -0.197292 0.977711   
     length 1.52607   
     axis -90 7.62852e-016 20   XYZ
    dof rx rz
    limits (-45.0 90.0)
           (-70.0 20.0)
  end
  begin
     id 5 
     name ltoes
     direction 1.53553e-011 -4.22024e-011 1   
     length 0.777832   
     axis -90 7.62852e-016 20   XYZ
    dof rx
    limits (-90.0 20.0)
  end
  begin
     id 6 
     name rhipjoint
     direction -0.727419 -0.612432 0.309497   
     length 2.50079  
     axis 0 0 0  XYZ 
  end
  begin
     id 7 
     name rfemur
     direction -0.34202 -0.939693 0   
     length 6.51665   
     axis 0 0 -20   XYZ
    dof rx ry rz
    limits (-160.0 20.0)
           (-70.0 70.0)
           (-70.0 60.0)
  end
  begin
     id 8 
     name rtibia
     direction -0.34202 -0.939693 0   
     length 6.48919   
     axis 0 0 -20   XYZ
    dof rx
    limits (-10.0 170.0)
 end
 begin
     id 9 
     name rfoot
     direction -0.112205 -0.308282 0.944655   
     length 1.68717  
     axis -90 -7.62852e-016 -20   XYZ
    dof rx rz
    limits (-45.0 90.0)
           (-20.0 70.0)
  end
  begin
     id 10 
     name rtoes
     direction -1.53583e-011 -4.21993e-011 1   
     length 0.846859   
     axis -90 -7.62852e-016 -20   XYZ
    dof rx
    limits (-90.0 20.0)
  end
  begin
     id 11 
     name lowerback
     direction -0.00119603 0.996364 -0.0851956   
     length 1.67242   
     axis 0 0 0   XYZ
    dof rx ry rz
    limits (-20.0 45.0)
           (-30.0 30.0)
           (-30.0 30.0)
  end
  begin
     id 12 
     name upperback
     direction -0.00531001 0.998318 0.0577248   
     length 1.64819   
     axis 0 0 0   XYZ
    dof rx ry rz
    limits (-20.0 45.0)
           (-30.0 30.0)
           (-30.0 30.0)
  end
  begin
     id 13 
     name thorax
     direction -0.00653676 0.995132 0.0983291   
     length 1.67429   
     axis 0 0 0   XYZ
    dof rx ry rz
    limits (-20.0 45.0)
           (-30.0 30.0)
           (-30.0 30.0)
  end
  begin
     id 14 
     name lowerneck
     direction 0.0141424 0.999886 0.00525412   
     length 1.59623   
     axis 0 0 0   XYZ
    dof rx ry rz
    limits (-20.0 45.0)
           (-30.0 30.0)
           (-30.0 30.0)
  end
  begin
     id 15 
     name upperneck
     direction -0.0640064 0.987178 -0.146232   
     length 1.59576   
     axis 0 0 0   XYZ
    dof rx ry rz
    limits (-20.0 45.0)
           (-30.0 30.0)
           (-30.0 30.0)
  end
  begin
     id 16
     name head
     direction -0.0222942 0.998496 -0.0500859  
     length 1.60959  
     axis 0 0 0   XYZ
    dof rx ry rz
    limits (-20.0 45.0)
           (-30.0 30.0)
           (-30.0 30.0)
  end
  begin
     id 17 
     name lclavicle
     direction 0.908549 0.392612 0.142806  
     length 2.80649  
     axis 0 0 0   XYZ
    dof ry rz
    limits (-20.0 10.0)
           (0.0 20.0)
  end
  begin
     id 18 
     name lhumerus
     direction 1 -4.48968e-011 1.08832e-028   
     length 4.2884   
     axis -180 -30 -90   XYZ
    dof rx ry rz
    limits (-60.0 90.0)
           (-90.0 90.0)
           (-90.0 90.0)
  end
  begin
     id 19
     name lradius
     direction 1 -4.48952e-011 -3.02642e-028   
     length 3.06552   
     axis -180 -30 -90   XYZ
    dof rx
    limits (-10.0 170.0)
  end
  begin
     id 20
     name lwrist
     direction 1 -4.49014e-011 1.58672e-027   
     length 1.53276   
     axis -1.65735e-015 90 90   XYZ
    dof ry
    limits (-180.0 0.0)
 end
  begin
     id 21 
     name lhand
     direction 1 -4.48928e-011 3.17344e-027   
     length 0.753045   
     axis -2.02492e-015 90 90   XYZ
    dof rx rz
    limits (-90.0 90.0)
           (-45.0 45.0)
  end
  begin
     id 22 
     name lfingers
     direction 1 -4.48958e-011 6.34687e-027   
     length 0.607124   
     axis -4.04985e-015 90 90   XYZ
    dof rx
    limits (0.0 90.0)
  end
  begin
     id 23
     name lthumb
     direction 0.707107 -6.34905e-011 0.707107   
     length 0.871712   
     axis -90 45 2.85299e-015   XYZ
    dof rx rz
    limits (-45.0 45.0)
           (-45.0 45.0)
  end
  begin
     id 24 
     name rclavicle
     direction -0.885098 0.45949 0.0739604   
     length 2.9478  
     axis 0 0 0   XYZ 
    dof ry rz
    limits (-10.0 20.0)
           (-20.0 0.0)
  end
  begin
     id 25 
     name rhumerus
     direction -1 -4.4898e-011 -2.61739e-027  
     length 4.52172   
     axis -180 30 90   XYZ
    dof rx ry rz
    limits (-90.0 60.0)
           (-90.0 90.0)
           (-90.0 90.0)
  end
  begin
     id 26 
     name rradius
     direction -1 -4.48945e-011 9.02552e-028   
     length 2.8914   
     axis -180 30 90   XYZ
    dof rx
    limits (-10.0 170.0)
  end
  begin
     id 27 
     name rwrist
     direction -1 -4.49018e-011 1.58672e-027   
     length 1.4457   
     axis -1.65735e-015 -90 -90   XYZ
    dof ry
    limits (-180.0 0.0)
  end
  begin
     id 28
     name rhand
     direction -1 -4.48825e-011 3.17344e-027   
     length 0.680541   
     axis -2.02492e-015 -90 -90   XYZ
    dof rx rz
    limits (-90.0 90.0)
           (-45.0 45.0)
  end
  begin
     id 29
     name rfingers
     direction -1 -4.49067e-011 6.34687e-027   
     length 0.54867   
     axis -4.04985e-015 -90 -90   XYZ
    dof rx
    limits (0.0 90.0)
  end
  begin
     id 30
     name rthumb
     direction -0.707107 -6.34833e-011 0.707107   
     length 0.787783   
     axis -90 -45 -2.85299e-015   XYZ
    dof rx rz
    limits (-45.0 45.0)
           (-45.0 45.0)
  end
:hierarchy
  begin
    root lhipjoint rhipjoint lowerback
    lhipjoint lfemur
    lfemur ltibia
    ltibia lfoot
    lfoot ltoes
    rhipjoint rfemur
    rfemur rtibia
    rtibia rfoot
    rfoot rtoes
    lowerback upperback
    upperback thorax
    thorax lowerneck lclavicle rclavicle
    lowerneck upperneck
    upperneck head
    lclavicle lhumerus
    lhumerus lradius
    lradius lwrist
    lwrist lhand lthumb
    lhand lfingers
    rclavicle rhumerus
    rhumerus rradius
    rradius rwrist
    rwrist rhand rthumb
    rhand rfingers
  end

#!OML:ASF E:\emotionWalksFemale\Project 1\Capture day 1\Session 1\Female1.ASF
:FULLY-SPECIFIED
:DEGREES
16
root 9.45381 15.4728 20.9878 -176.631 16.0011 -178.676
lowerback 7.77702 0.538717 1.61088
upperback -4.38572 1.03714 0.628801
thorax -9.00566 0.459244 -0.403006
lowerneck -6.98943 0.692443 -4.31197
upperneck 13.5008 1.13248 4.60841
head 5.15086 0.768288 2.22987
rclavicle 3.83468e-014 -5.56597e-015
rhumerus -40.6602 -0.420403 -79.6317
rradius 43.5508
rwrist 15.9452
rhand 0.557017 -53.6367
rfingers 7.12502
rthumb 26.1238 -81.8597
lclavicle 3.83468e-014 -5.56597e-015
lhumerus -37.5891 2.53132 82.8115
lradius 38.5982
lwrist -8.93084
lhand -3.7419 -38.0358
lfingers 7.12502
lthumb 22.0018 -9.2672
rfemur -8.5467 17.0882 23.8396
rtibia 22.334
rfoot -14.8945 -15.7042
rtoes -11.6886
lfemur -7.56707 -5.9872 -21.7894
ltibia 25.5507
lfoot -23.4731 22.5593
ltoes -38.8269
17
root 9.45751 15.4717 20.9889 -176.502 15.9314 -178.754
lowerback 7.68981 0.501969 1.56373
upperback -4.41347 0.980131 0.602566
thorax -8.98567 0.434224 -0.394759
lowerneck -6.92871 0.705145 -4.22482
upperneck 13.4057 1.15609 4.44755
head 5.11203 0.771088 2.16461
rclavicle -2.57985e-014 1.71949e-014
rhumerus -40.6095 -0.829982 -78.9312
rradius 43.1457
rwrist 16.0655
rhand 0.201512 -52.3878
rfingers 7.12502
rthumb 25.7834 -80.6607
lclavicle -2.57985e-014 1.71949e-014
lhumerus -37.6251 2.54145 82.4514
lradius 38.7652
lwrist -8.68497
lhand -3.10053 -37.7088
lfingers 7.12502
lthumb 22.6175 -9.01392
rfemur -8.69956 17.0674 23.7292
rtibia 22.3103
rfoot -14.8331 -15.7622
rtoes -11.73
lfemur -7.6847 -6.08529 -21.8195
ltibia 25.4665
lfoot -23.6883 22.4807
ltoes -38.3725
18
root 9.46324 15.4708 20.9912 -176.469 15.78 -178.799
lowerback 7.70972 0.457366 1.52007
upperback -4.40821 0.913565 0.588812
thorax -8.9931 0.403641 -0.374806
lowerneck -6.82636 0.683787 -4.0906
upperneck 13.2674 1.12933 4.26358
head 5.05553 0.749479 2.08044
rclavicle -2.92586e-015 -1.2921e-014
rhumerus -40.646 -0.992223 -78.4077
rradius 43.1277
rwrist 15.8504
rhand 0.575054 -52.863
rfingers 7.12502
rthumb 26.1411 -81.0835
lclavicle -2.92586e-015 -1.2921e-014
lhumerus -37.4879 2.58228 82.1052
lradius 38.5891
lwrist -8.72048
lhand -3.03117 -37.5976
lfingers 7.12502
lthumb 22.6841 -8.91081
rfemur -8.68609 17.156 23.7194
rtibia 22.2417
rfoot -14.6753 -16.0009
rtoes -11.9463
lfemur -7.71077 -6.22058 -21.8096
ltibia 25.353
lfoot -23.6518 22.4127
ltoes -38.2849
19
root 9.46857 15.4745 20.9936 -176.461 15.5648 -178.793
lowerback 7.75118 0.421471 1.59057
upperback -4.33459 0.86627 0.554544
thorax -8.93657 0.374174 -0.443386
lowerneck -6.8576 0.656384 -4.13125
upperneck 13.1048 1.08029 4.3442
head 5.01185 0.724856 2.10718
rclavicle -2.12016e-014 -9.93923e-016
rhumerus -40.6309 -1.33277 -77.8653
rradius 43.1198
rwrist 15.5493
rhand 0.400645 -53.4021
rfingers 7.12502
rthumb 25.9741 -81.6471
lclavicle -2.12016e-014 -9.93923e-016
lhumerus -37.2281 2.4959 81.8109
lradius 38.2532
lwrist -9.01778
lhand -3.6765 -37.8323
lfingers 7.12502
lthumb 22.0646 -9.07109
rfemur -8.59983 17.1464 23.7797
rtibia 22.1137
rfoot -14.6859 -16.2093
rtoes -11.7415
lfemur -7.70838 -6.50204 -21.7566
ltibia 25.2501
lfoot -23.5516 22.4215
ltoes -38.3857
20
root 9.47441 15.4828 20.9947 -176.341 15.3714 -178.767
lowerback 7.70851 0.374716 1.65026
upperback -4.25455 0.804422 0.548429
thorax -8.82464 0.340287 -0.472999
lowerneck -7.04431 0.646624 -4.2657
upperneck 12.9417 1.0598 4.4764
head 4.99227 0.712023 2.16838
rclavicle -8.11166e-014 -1.8487e-014
rhumerus -40.4101 -1.91741 -77.1952
rradius 42.7576
rwrist 15.541
rhand -0.084501 -54.3168
rfingers 7.12502
rthumb 25.5094 -82.6292
lclavicle -8.11166e-014 -1.8487e-014
lhumerus -36.9531 2.63617 81.4595
lradius 37.9906
lwrist -9.46584
lhand -4.09111 -37.9999
lfingers 7.12502
lthumb 21.6665 -9.19225
rfemur -8.58495 17.1575 23.816
rtibia 21.8877
rfoot -14.8992 -16.342
rtoes -10.5425
lfemur -7.82315 -6.78188 -21.6794
ltibia 25.1821
lfoot -23.4704 22.4497
ltoes -38.3743
21
root 9.48273 15.4875 21.0007 -176.164 15.1183 -178.711
lowerback 7.72169 0.297285 1.65054
upperback -4.2143 0.702874 0.595949
thorax -8.79119 0.292461 -0.407324
lowerneck -7.18634 0.64459 -4.26681
upperneck 12.6735 1.0509 4.44866
head 4.93426 0.698735 2.15654
rclavicle -1.61637e-014 -6.26172e-015
rhumerus -40.1947 -2.36478 -76.5527
rradius 42.4736
rwrist 15.7142
rhand -0.0698946 -55.8819
rfingers 7.12502
rthumb 25.5234 -84.1923
lclavicle -1.61637e-014 -6.26172e-015
lhumerus -36.6659 2.88881 81.1244
lradius 37.782
lwrist -9.75042
lhand -4.31036 -37.8951
lfingers 7.12502
lthumb 21.4559 -9.06331
rfemur -8.58144 17.2324 23.8869
rtibia 21.5579
rfoot -14.7585 -16.5866
rtoes -9.84326
lfemur -8.0446 -6.87288 -21.5209
ltibia 25.1505
lfoot -23.3813 22.3156
ltoes -38.3869
22
root 9.49334 15.4939 21.0157 -175.961 14.6928 -178.687
lowerback 7.81218 0.182793 1.599
upperback -4.22725 0.548726 0.632103
thorax -8.86207 0.221247 -0.317234
lowerneck -7.18321 0.647582 -4.26193
upperneck 12.2999 1.04126 4.45539
head 4.81908 0.686616 2.15197
rclavicle 7.0258e-015 -4.67144e-015
rhumerus -40.163 -2.71611 -75.915
rradius 42.4951
rwrist 16.3883
rhand 1.22084 -57.2089
rfingers 7.12502
rthumb 26.7592 -85.3364
lclavicle 7.0258e-015 -4.67144e-015
lhumerus -36.4125 2.96498 80.8119
lradius 37.4682
lwrist -10.0757
lhand -4.74448 -38.0218
lfingers 7.12502
lthumb 21.0389 -9.14306
rfemur -8.62064 17.1347 23.9416
rtibia 21.1977
rfoot -14.4519 -16.9072
rtoes -10.0127
lfemur -8.40963 -6.91998 -21.3336
ltibia 25.1869
lfoot -23.2318 22.0753
ltoes -38.7781
23
root 9.50442 15.5045 21.0334 -175.722 14.221 -178.66
lowerback 8.00005 0.0780518 1.56332
upperback -4.33891 0.415411 0.652795
thorax -9.09715 0.158768 -0.255667
lowerneck -7.09631 0.626568 -4.31251
upperneck 12.0599 1.0044 4.51397
head 4.73155 0.665447 2.17239
rclavicle -2.70875e-014 -1.36167e-014
rhumerus -40.2847 -3.15888 -75.1852
rradius 41.8115
rwrist 15.6147
rhand -0.564556 -53.8617
rfingers 7.12502
rthumb 25.0495 -82.2391
lclavicle -2.70875e-014 -1.36167e-014
lhumerus -36.3689 3.02379 80.4629
lradius 36.9531
lwrist -10.9259
lhand -5.72166 -38.7669
lfingers 7.12502
lthumb 20.0999 -9.78666
rfemur -8.7088 17.0097 23.9917
rtibia 20.8602
rfoot -14.3395 -17.1905
rtoes -10.1242
lfemur -8.83811 -6.98709 -21.1374
ltibia 25.2626
lfoot -23.08 21.8179
ltoes -39.3531
24
root 9.514 15.5104 21.0446 -175.528 13.8767 -178.593
lowerback 8.27839 0.0307426 1.59226
upperback -4.49141 0.371 0.671397
thorax -9.42943 0.135434 -0.246135
lowerneck -7.01229 0.607898 -4.30926
upperneck 11.9755 0.97233 4.54944
head 4.69268 0.650959 2.17926
rclavicle -7.237e-016 5.06901e-015
rhumerus -40.5553 -3.69062 -74.3815
rradius 41.7736
rwrist 16.1505
rhand 1.48791 -53.5741
rfingers 7.12502
rthumb 27.0147 -81.6622
lclavicle -7.237e-016 5.06901e-015
lhumerus -36.5268 2.84181 80.2936
lradius 37.4608
lwrist -9.94407
lhand -4.37416 -37.6518
lfingers 7.12502
lthumb 21.3946 -8.81303
rfemur -8.69679 17.0371 24.0896
rtibia 20.484
rfoot -14.2102 -17.4545
rtoes -9.92306
lfemur -9.14521 -7.06049 -20.9461
ltibia 25.3251
lfoot -22.993 21.6595
ltoes -39.6778
25
root 9.52217 15.5151 21.0451 -175.415 13.7251 -178.556
lowerback 8.37703 0.0368383 1.6103
upperback -4.5037 0.385195 0.684808
thorax -9.50117 0.141164 -0.244588
lowerneck -6.99059 0.616328 -4.34899
upperneck 11.7909 0.979142 4.58496
head 4.63157 0.651144 2.1946
rclavicle -6.95125e-015 -1.5207e-014
rhumerus -40.6521 -4.09955 -73.7097
rradius 41.5978
rwrist 16.3016
rhand 2.21386 -53.6822
rfingers 7.12502
rthumb 27.7091 -81.6607
lclavicle -6.95125e-015 -1.5207e-014
lhumerus -36.4922 2.8222 80.0223
lradius 37.0671
lwrist -10.4073
lhand -6.09179 -38.5449
lfingers 7.12502
lthumb 19.7441 -9.52767
rfemur -8.5573 17.1242 24.1501
rtibia 20.04
rfoot -14.0023 -17.6592
rtoes -9.56587
lfemur -9.34422 -7.13321 -20.8449
ltibia 25.4457
lfoot -23.0581 21.6753
ltoes -39.4964
26
root 9.52918 15.5218 21.0358 -175.372 13.7073 -178.503
lowerback 8.28078 0.052559 1.68198
upperback -4.37737 0.409861 0.72148
thorax -9.30528 0.15013 -0.249455
lowerneck -7.05879 0.624086 -4.49947
upperneck 11.5277 0.999035 4.59178
head 4.56065 0.648979 2.21958
rclavicle -2.03785e-014 -8.94531e-016
rhumerus -40.5552 -4.39784 -73.0609
rradius 41.1119
rwrist 16.2117
rhand 1.78987 -53.0112
rfingers 7.12502
rthumb 27.3036 -81.0542
lclavicle -2.03785e-014 -8.94531e-016
lhumerus -36.1524 2.94281 79.7894
lradius 36.5778
lwrist -10.3987
lhand -6.52997 -38.9616
lfingers 7.12502
lthumb 19.3228 -9.90158
rfemur -8.28552 17.261 24.2226
rtibia 19.5189
rfoot -13.8393 -17.7868
rtoes -8.85408
lfemur -9.46773 -7.15892 -20.7814
ltibia 25.6593
lfoot -23.2788 21.8645
ltoes -39.7851
